<svg height="400pt" viewBox="0 -23 400 400" width="400pt" xmlns="http://www.w3.org/2000/svg"><g fill="#FFFFFF"><path d="m390 333.6875h-380c-5.523438 0-10 4.476562-10 10s4.476562 10 10 10h380c5.523438 0 10-4.476562 10-10s-4.476562-10-10-10zm0 0"/><path d="m123.925781 89.285156 66.074219-57.363281v229.84375c0 5.523437 4.476562 10 10 10s10-4.476563 10-10v-229.84375l66.074219 57.363281c4.179687 3.535156 10.421875 3.058594 14.011719-1.074218 3.585937-4.132813 3.1875-10.382813-.898438-14.023438l-82.632812-71.742188c-.03125-.027343-.066407-.050781-.097657-.078124-.117187-.097657-.238281-.1875-.359375-.28125s-.257812-.199219-.390625-.292969c-.132812-.089844-.246093-.164063-.371093-.242188s-.28125-.175781-.425782-.257812c-.125-.070313-.257812-.136719-.390625-.203125-.128906-.070313-.292969-.148438-.441406-.214844s-.273437-.117188-.414063-.175781c-.136718-.054688-.296874-.113281-.453124-.164063-.15625-.054687-.285157-.09375-.429688-.136718-.164062-.046876-.324219-.085938-.484375-.125-.140625-.035157-.28125-.066407-.421875-.09375-.1875-.035157-.378906-.0625-.566406-.085938-.121094-.015625-.242188-.0351562-.363282-.046875-.628906-.0625-1.265624-.0625-1.898437 0-.121094.0117188-.238281.03125-.363281.046875-.1875.023438-.375.050781-.5625.085938-.144532.027343-.28125.058593-.421875.09375-.164063.039062-.324219.078124-.484375.125-.144532.042968-.289063.085937-.429688.136718-.144531.046875-.300781.105469-.457031.164063-.15625.0625-.277344.113281-.414063.175781-.136718.0625-.300781.136719-.441406.214844-.140625.074218-.261718.132812-.390625.203125-.128906.074219-.28125.167969-.421875.257812-.140625.089844-.25.160157-.375.242188-.121094.085937-.257812.191406-.386718.292969-.128907.097656-.242188.183593-.359376.28125-.03125.027343-.066406.050781-.101562.078124l-82.628906 71.742188c-4.085938 3.640625-4.488282 9.890625-.898438 14.023438 3.589844 4.132812 9.832032 4.609374 14.011719 1.074218zm0 0"/></g></svg>